<svg xmlns="http://www.w3.org/2000/svg" width="1600" height="600">
  <rect width="100%" height="100%" fill="#0b0f15"/>
  <g font-family="Inter, Arial" fill="#eaeef6" font-size="18" text-anchor="middle">
    <g transform="translate(160,120)">
      <rect x="0" y="0" width="260" height="120" rx="12" fill="none" stroke="#eaeef6"/>
      <text x="130" y="66">Document Upload</text>
    </g>
    <g transform="translate(460,120)">
      <rect x="0" y="0" width="260" height="120" rx="12" fill="none" stroke="#eaeef6"/>
      <text x="130" y="66">Jurisdiction Detection</text>
    </g>
    <g transform="translate(760,120)">
      <rect x="0" y="0" width="260" height="120" rx="12" fill="none" stroke="#eaeef6"/>
      <text x="130" y="66">Clause Adaptation</text>
    </g>
    <g transform="translate(1060,120)">
      <rect x="0" y="0" width="260" height="120" rx="12" fill="none" stroke="#eaeef6"/>
      <text x="130" y="60">Legal</text><text x="130" y="86">Traceability</text>
    </g>
    <g transform="translate(1360,120)">
      <rect x="0" y="0" width="200" height="120" rx="12" fill="none" stroke="#eaeef6"/>
      <text x="100" y="66">Attorney Review</text>
    </g>
  </g>
  <g stroke="#eaeef6" stroke-width="2" fill="none">
    <line x1="420" y1="180" x2="460" y2="180"/><polygon points="460,180 450,174 450,186" fill="#eaeef6"/>
    <line x1="720" y1="180" x2="760" y2="180"/><polygon points="760,180 750,174 750,186" fill="#eaeef6"/>
    <line x1="1020" y1="180" x2="1060" y2="180"/><polygon points="1060,180 1050,174 1050,186" fill="#eaeef6"/>
    <line x1="1320" y1="180" x2="1360" y2="180"/><polygon points="1360,180 1350,174 1350,186" fill="#eaeef6"/>
  </g>
  <g font-family="Inter, Arial" fill="#aab1bd" font-size="14">
    <text x="240" y="280">PDF / DOCX / TXT</text>
    <text x="560" y="280">State rules & signals</text>
    <text x="860" y="280">Clause library mapping</text>
    <text x="1160" y="280">Hash / audit trail</text>
  </g>
</svg>
